<mxfile host="app.diagrams.net" modified="2023-06-13T12:25:44.292Z" agent="Mozilla/5.0 (Windows NT 10.0; Win64; x64) AppleWebKit/537.36 (KHTML, like Gecko) Chrome/113.0.0.0 Safari/537.36" etag="f9IjCtOPhNBUVWB3lU-q" version="21.3.8" type="google">
  <diagram name="PÃ¡gina-1" id="_Q29MlCdIbkPaP0DHhP8">
    <mxGraphModel dx="2261" dy="756" grid="1" gridSize="10" guides="1" tooltips="1" connect="1" arrows="1" fold="1" page="1" pageScale="1" pageWidth="827" pageHeight="1169" math="0" shadow="0">
      <root>
        <mxCell id="0" />
        <mxCell id="1" parent="0" />
        <mxCell id="lLFCcneiwbaLHLjSez-d-9" value="" style="edgeStyle=orthogonalEdgeStyle;rounded=0;orthogonalLoop=1;jettySize=auto;html=1;" edge="1" parent="1">
          <mxGeometry relative="1" as="geometry">
            <mxPoint x="40.512834069460496" y="240" as="sourcePoint" />
            <mxPoint x="20" y="170" as="targetPoint" />
            <Array as="points">
              <mxPoint x="20" y="240" />
            </Array>
          </mxGeometry>
        </mxCell>
        <mxCell id="lLFCcneiwbaLHLjSez-d-18" value="" style="edgeStyle=orthogonalEdgeStyle;rounded=0;orthogonalLoop=1;jettySize=auto;html=1;" edge="1" parent="1">
          <mxGeometry relative="1" as="geometry">
            <mxPoint x="139.4871659305395" y="240" as="sourcePoint" />
            <mxPoint x="160" y="170" as="targetPoint" />
            <Array as="points">
              <mxPoint x="161" y="240" />
            </Array>
          </mxGeometry>
        </mxCell>
        <mxCell id="lLFCcneiwbaLHLjSez-d-10" value="identificacion" style="ellipse;whiteSpace=wrap;html=1;fillColor=#99CCFF;" vertex="1" parent="1">
          <mxGeometry x="-20" y="110" width="90" height="60" as="geometry" />
        </mxCell>
        <mxCell id="lLFCcneiwbaLHLjSez-d-12" value="" style="endArrow=classic;html=1;rounded=0;" edge="1" parent="1">
          <mxGeometry width="50" height="50" relative="1" as="geometry">
            <mxPoint x="90" y="210" as="sourcePoint" />
            <mxPoint x="90" y="120" as="targetPoint" />
          </mxGeometry>
        </mxCell>
        <mxCell id="lLFCcneiwbaLHLjSez-d-19" value="" style="ellipse;whiteSpace=wrap;html=1;" vertex="1" parent="1">
          <mxGeometry x="120" y="110" width="90" height="60" as="geometry" />
        </mxCell>
        <mxCell id="lLFCcneiwbaLHLjSez-d-20" value="Propietario" style="rounded=0;whiteSpace=wrap;html=1;" vertex="1" parent="1">
          <mxGeometry x="30" y="210" width="120" height="60" as="geometry" />
        </mxCell>
        <mxCell id="lLFCcneiwbaLHLjSez-d-21" value="nombres" style="ellipse;whiteSpace=wrap;html=1;" vertex="1" parent="1">
          <mxGeometry x="50" y="70" width="80" height="50" as="geometry" />
        </mxCell>
        <mxCell id="lLFCcneiwbaLHLjSez-d-22" value="" style="endArrow=classic;html=1;rounded=0;exitX=0;exitY=0;exitDx=0;exitDy=0;" edge="1" parent="1" source="lLFCcneiwbaLHLjSez-d-21">
          <mxGeometry width="50" height="50" relative="1" as="geometry">
            <mxPoint x="50" y="70" as="sourcePoint" />
            <mxPoint x="30" y="50" as="targetPoint" />
          </mxGeometry>
        </mxCell>
        <mxCell id="lLFCcneiwbaLHLjSez-d-23" value="nombres&lt;span style=&quot;white-space: pre;&quot;&gt;&#x9;&lt;/span&gt;" style="ellipse;whiteSpace=wrap;html=1;" vertex="1" parent="1">
          <mxGeometry y="10" width="60" height="40" as="geometry" />
        </mxCell>
        <mxCell id="lLFCcneiwbaLHLjSez-d-24" value="apellidos" style="ellipse;whiteSpace=wrap;html=1;" vertex="1" parent="1">
          <mxGeometry x="110" y="10" width="60" height="40" as="geometry" />
        </mxCell>
        <mxCell id="lLFCcneiwbaLHLjSez-d-25" value="" style="endArrow=classic;html=1;rounded=0;entryX=0.5;entryY=1;entryDx=0;entryDy=0;" edge="1" parent="1" target="lLFCcneiwbaLHLjSez-d-24">
          <mxGeometry width="50" height="50" relative="1" as="geometry">
            <mxPoint x="120" y="80" as="sourcePoint" />
            <mxPoint x="140" y="60" as="targetPoint" />
          </mxGeometry>
        </mxCell>
        <mxCell id="lLFCcneiwbaLHLjSez-d-27" value="Telefonos" style="ellipse;whiteSpace=wrap;html=1;" vertex="1" parent="1">
          <mxGeometry x="130" y="120" width="70" height="40" as="geometry" />
        </mxCell>
        <mxCell id="lLFCcneiwbaLHLjSez-d-35" value="" style="endArrow=none;html=1;rounded=0;" edge="1" parent="1">
          <mxGeometry width="50" height="50" relative="1" as="geometry">
            <mxPoint x="150" y="240" as="sourcePoint" />
            <mxPoint x="240" y="240" as="targetPoint" />
          </mxGeometry>
        </mxCell>
        <mxCell id="lLFCcneiwbaLHLjSez-d-36" value="posee" style="rhombus;whiteSpace=wrap;html=1;" vertex="1" parent="1">
          <mxGeometry x="240" y="200" width="80" height="80" as="geometry" />
        </mxCell>
        <mxCell id="lLFCcneiwbaLHLjSez-d-37" value="" style="endArrow=none;html=1;rounded=0;" edge="1" parent="1">
          <mxGeometry width="50" height="50" relative="1" as="geometry">
            <mxPoint x="320" y="240" as="sourcePoint" />
            <mxPoint x="400" y="240" as="targetPoint" />
          </mxGeometry>
        </mxCell>
        <mxCell id="lLFCcneiwbaLHLjSez-d-42" value="" style="edgeStyle=orthogonalEdgeStyle;rounded=0;orthogonalLoop=1;jettySize=auto;html=1;" edge="1" parent="1" source="lLFCcneiwbaLHLjSez-d-38">
          <mxGeometry relative="1" as="geometry">
            <mxPoint x="380" y="170" as="targetPoint" />
          </mxGeometry>
        </mxCell>
        <mxCell id="lLFCcneiwbaLHLjSez-d-64" value="" style="edgeStyle=orthogonalEdgeStyle;rounded=0;orthogonalLoop=1;jettySize=auto;html=1;endArrow=none;endFill=0;" edge="1" parent="1" source="lLFCcneiwbaLHLjSez-d-38">
          <mxGeometry relative="1" as="geometry">
            <mxPoint x="580" y="240" as="targetPoint" />
          </mxGeometry>
        </mxCell>
        <mxCell id="lLFCcneiwbaLHLjSez-d-38" value="Vivienda" style="rounded=0;whiteSpace=wrap;html=1;" vertex="1" parent="1">
          <mxGeometry x="400" y="210" width="120" height="60" as="geometry" />
        </mxCell>
        <mxCell id="lLFCcneiwbaLHLjSez-d-43" value="codigo" style="ellipse;whiteSpace=wrap;html=1;fillColor=#99CCFF;" vertex="1" parent="1">
          <mxGeometry x="330" y="110" width="90" height="60" as="geometry" />
        </mxCell>
        <mxCell id="lLFCcneiwbaLHLjSez-d-44" value="" style="endArrow=classic;html=1;rounded=0;entryX=0.363;entryY=1.1;entryDx=0;entryDy=0;entryPerimeter=0;" edge="1" parent="1" target="lLFCcneiwbaLHLjSez-d-45">
          <mxGeometry width="50" height="50" relative="1" as="geometry">
            <mxPoint x="460" y="210" as="sourcePoint" />
            <mxPoint x="510" y="160" as="targetPoint" />
          </mxGeometry>
        </mxCell>
        <mxCell id="lLFCcneiwbaLHLjSez-d-45" value="direccion" style="ellipse;whiteSpace=wrap;html=1;" vertex="1" parent="1">
          <mxGeometry x="450" y="115" width="80" height="50" as="geometry" />
        </mxCell>
        <mxCell id="lLFCcneiwbaLHLjSez-d-46" value="" style="endArrow=classic;html=1;rounded=0;" edge="1" parent="1">
          <mxGeometry width="50" height="50" relative="1" as="geometry">
            <mxPoint x="465" y="120" as="sourcePoint" />
            <mxPoint x="450" y="90" as="targetPoint" />
          </mxGeometry>
        </mxCell>
        <mxCell id="lLFCcneiwbaLHLjSez-d-47" value="calle" style="ellipse;whiteSpace=wrap;html=1;" vertex="1" parent="1">
          <mxGeometry x="414" y="50" width="70" height="40" as="geometry" />
        </mxCell>
        <mxCell id="lLFCcneiwbaLHLjSez-d-48" value="" style="endArrow=classic;html=1;rounded=0;" edge="1" parent="1">
          <mxGeometry width="50" height="50" relative="1" as="geometry">
            <mxPoint x="510" y="120" as="sourcePoint" />
            <mxPoint x="540" y="90" as="targetPoint" />
          </mxGeometry>
        </mxCell>
        <mxCell id="lLFCcneiwbaLHLjSez-d-49" value="numero" style="ellipse;whiteSpace=wrap;html=1;" vertex="1" parent="1">
          <mxGeometry x="500" y="50" width="70" height="40" as="geometry" />
        </mxCell>
        <mxCell id="lLFCcneiwbaLHLjSez-d-50" value="" style="endArrow=classic;html=1;rounded=0;" edge="1" parent="1">
          <mxGeometry width="50" height="50" relative="1" as="geometry">
            <mxPoint x="30" y="240" as="sourcePoint" />
            <mxPoint x="-40" y="240" as="targetPoint" />
          </mxGeometry>
        </mxCell>
        <mxCell id="lLFCcneiwbaLHLjSez-d-52" value="1:N" style="text;html=1;align=center;verticalAlign=middle;resizable=0;points=[];autosize=1;strokeColor=none;fillColor=none;" vertex="1" parent="1">
          <mxGeometry x="260" y="168" width="40" height="30" as="geometry" />
        </mxCell>
        <mxCell id="lLFCcneiwbaLHLjSez-d-53" value="(1:1)" style="text;html=1;align=center;verticalAlign=middle;resizable=0;points=[];autosize=1;strokeColor=none;fillColor=none;" vertex="1" parent="1">
          <mxGeometry x="150" y="218" width="50" height="30" as="geometry" />
        </mxCell>
        <mxCell id="lLFCcneiwbaLHLjSez-d-54" value="(1:N)" style="text;html=1;align=center;verticalAlign=middle;resizable=0;points=[];autosize=1;strokeColor=none;fillColor=none;" vertex="1" parent="1">
          <mxGeometry x="335" y="218" width="50" height="30" as="geometry" />
        </mxCell>
        <mxCell id="lLFCcneiwbaLHLjSez-d-57" value="Email" style="ellipse;whiteSpace=wrap;html=1;dashed=1;" vertex="1" parent="1">
          <mxGeometry x="-100" y="215" width="60" height="50" as="geometry" />
        </mxCell>
        <mxCell id="lLFCcneiwbaLHLjSez-d-71" value="" style="edgeStyle=orthogonalEdgeStyle;rounded=0;orthogonalLoop=1;jettySize=auto;html=1;endArrow=none;endFill=0;" edge="1" parent="1" source="lLFCcneiwbaLHLjSez-d-67">
          <mxGeometry relative="1" as="geometry">
            <mxPoint x="720" y="240" as="targetPoint" />
          </mxGeometry>
        </mxCell>
        <mxCell id="lLFCcneiwbaLHLjSez-d-67" value="ubicada" style="rhombus;whiteSpace=wrap;html=1;" vertex="1" parent="1">
          <mxGeometry x="580" y="200" width="90" height="80" as="geometry" />
        </mxCell>
        <mxCell id="lLFCcneiwbaLHLjSez-d-68" value="(0:N)" style="text;html=1;align=center;verticalAlign=middle;resizable=0;points=[];autosize=1;strokeColor=none;fillColor=none;" vertex="1" parent="1">
          <mxGeometry x="515" y="218" width="50" height="30" as="geometry" />
        </mxCell>
        <mxCell id="lLFCcneiwbaLHLjSez-d-69" value="N:1" style="text;html=1;align=center;verticalAlign=middle;resizable=0;points=[];autosize=1;strokeColor=none;fillColor=none;" vertex="1" parent="1">
          <mxGeometry x="605" y="180" width="40" height="30" as="geometry" />
        </mxCell>
        <mxCell id="lLFCcneiwbaLHLjSez-d-93" value="" style="edgeStyle=orthogonalEdgeStyle;rounded=0;orthogonalLoop=1;jettySize=auto;html=1;endArrow=none;endFill=0;" edge="1" parent="1" source="lLFCcneiwbaLHLjSez-d-76" target="lLFCcneiwbaLHLjSez-d-92">
          <mxGeometry relative="1" as="geometry" />
        </mxCell>
        <mxCell id="lLFCcneiwbaLHLjSez-d-76" value="CIUDAD&lt;br&gt;" style="shape=ext;margin=3;double=1;whiteSpace=wrap;html=1;align=center;" vertex="1" parent="1">
          <mxGeometry x="720" y="220" width="100" height="40" as="geometry" />
        </mxCell>
        <mxCell id="lLFCcneiwbaLHLjSez-d-77" value="1:1" style="text;html=1;align=center;verticalAlign=middle;resizable=0;points=[];autosize=1;strokeColor=none;fillColor=none;" vertex="1" parent="1">
          <mxGeometry x="680" y="220" width="40" height="30" as="geometry" />
        </mxCell>
        <mxCell id="lLFCcneiwbaLHLjSez-d-83" value="" style="endArrow=none;html=1;rounded=0;" edge="1" parent="1">
          <mxGeometry width="50" height="50" relative="1" as="geometry">
            <mxPoint x="745" y="220" as="sourcePoint" />
            <mxPoint x="730" y="190" as="targetPoint" />
          </mxGeometry>
        </mxCell>
        <mxCell id="lLFCcneiwbaLHLjSez-d-84" value="codigo" style="ellipse;whiteSpace=wrap;html=1;fillColor=#99CCFF;" vertex="1" parent="1">
          <mxGeometry x="700" y="150" width="50" height="40" as="geometry" />
        </mxCell>
        <mxCell id="lLFCcneiwbaLHLjSez-d-85" value="" style="endArrow=none;html=1;rounded=0;" edge="1" parent="1">
          <mxGeometry width="50" height="50" relative="1" as="geometry">
            <mxPoint x="777" y="220" as="sourcePoint" />
            <mxPoint x="800" y="190" as="targetPoint" />
          </mxGeometry>
        </mxCell>
        <mxCell id="lLFCcneiwbaLHLjSez-d-86" value="nombre" style="ellipse;whiteSpace=wrap;html=1;" vertex="1" parent="1">
          <mxGeometry x="777" y="150" width="50" height="40" as="geometry" />
        </mxCell>
        <mxCell id="lLFCcneiwbaLHLjSez-d-87" value="" style="endArrow=none;html=1;rounded=0;" edge="1" parent="1">
          <mxGeometry width="50" height="50" relative="1" as="geometry">
            <mxPoint x="420" y="300" as="sourcePoint" />
            <mxPoint x="439" y="270" as="targetPoint" />
          </mxGeometry>
        </mxCell>
        <mxCell id="lLFCcneiwbaLHLjSez-d-88" value="cant habitantes" style="ellipse;whiteSpace=wrap;html=1;" vertex="1" parent="1">
          <mxGeometry x="380" y="300" width="70" height="40" as="geometry" />
        </mxCell>
        <mxCell id="lLFCcneiwbaLHLjSez-d-89" value="" style="endArrow=none;html=1;rounded=0;" edge="1" parent="1">
          <mxGeometry width="50" height="50" relative="1" as="geometry">
            <mxPoint x="510" y="300" as="sourcePoint" />
            <mxPoint x="485" y="270" as="targetPoint" />
          </mxGeometry>
        </mxCell>
        <mxCell id="lLFCcneiwbaLHLjSez-d-90" value="descripcion" style="ellipse;whiteSpace=wrap;html=1;" vertex="1" parent="1">
          <mxGeometry x="480" y="300" width="65" height="40" as="geometry" />
        </mxCell>
        <mxCell id="lLFCcneiwbaLHLjSez-d-95" value="" style="edgeStyle=orthogonalEdgeStyle;rounded=0;orthogonalLoop=1;jettySize=auto;html=1;endArrow=none;endFill=0;" edge="1" parent="1" source="lLFCcneiwbaLHLjSez-d-92">
          <mxGeometry relative="1" as="geometry">
            <mxPoint x="770" y="400" as="targetPoint" />
          </mxGeometry>
        </mxCell>
        <mxCell id="lLFCcneiwbaLHLjSez-d-92" value="PERTENECE" style="shape=rhombus;double=1;perimeter=rhombusPerimeter;whiteSpace=wrap;html=1;align=center;" vertex="1" parent="1">
          <mxGeometry x="710" y="310" width="120" height="60" as="geometry" />
        </mxCell>
        <mxCell id="lLFCcneiwbaLHLjSez-d-96" value="DEPARTAMENTO&lt;br&gt;" style="whiteSpace=wrap;html=1;align=center;" vertex="1" parent="1">
          <mxGeometry x="720" y="400" width="100" height="40" as="geometry" />
        </mxCell>
        <mxCell id="lLFCcneiwbaLHLjSez-d-97" value="(1:N)" style="text;html=1;align=center;verticalAlign=middle;resizable=0;points=[];autosize=1;strokeColor=none;fillColor=none;" vertex="1" parent="1">
          <mxGeometry x="765" y="258" width="50" height="30" as="geometry" />
        </mxCell>
        <mxCell id="lLFCcneiwbaLHLjSez-d-98" value="N:1" style="text;html=1;align=center;verticalAlign=middle;resizable=0;points=[];autosize=1;strokeColor=none;fillColor=none;" vertex="1" parent="1">
          <mxGeometry x="680" y="328" width="40" height="30" as="geometry" />
        </mxCell>
        <mxCell id="lLFCcneiwbaLHLjSez-d-99" value="(1:1)" style="text;html=1;align=center;verticalAlign=middle;resizable=0;points=[];autosize=1;strokeColor=none;fillColor=none;" vertex="1" parent="1">
          <mxGeometry x="765" y="378" width="50" height="30" as="geometry" />
        </mxCell>
        <mxCell id="lLFCcneiwbaLHLjSez-d-100" value="" style="endArrow=none;html=1;rounded=0;" edge="1" parent="1">
          <mxGeometry width="50" height="50" relative="1" as="geometry">
            <mxPoint x="730" y="470" as="sourcePoint" />
            <mxPoint x="760" y="440" as="targetPoint" />
          </mxGeometry>
        </mxCell>
        <mxCell id="lLFCcneiwbaLHLjSez-d-101" value="CODIGO" style="ellipse;whiteSpace=wrap;html=1;align=center;fillColor=#99CCFF;" vertex="1" parent="1">
          <mxGeometry x="675" y="470" width="75" height="40" as="geometry" />
        </mxCell>
        <mxCell id="lLFCcneiwbaLHLjSez-d-102" value="" style="endArrow=none;html=1;rounded=0;" edge="1" parent="1">
          <mxGeometry width="50" height="50" relative="1" as="geometry">
            <mxPoint x="810" y="470" as="sourcePoint" />
            <mxPoint x="795" y="440" as="targetPoint" />
          </mxGeometry>
        </mxCell>
        <mxCell id="lLFCcneiwbaLHLjSez-d-103" value="NOMBRE" style="ellipse;whiteSpace=wrap;html=1;align=center;" vertex="1" parent="1">
          <mxGeometry x="777" y="470" width="75" height="40" as="geometry" />
        </mxCell>
        <mxCell id="lLFCcneiwbaLHLjSez-d-105" value="" style="endArrow=none;html=1;rounded=0;exitX=0.5;exitY=0;exitDx=0;exitDy=0;" edge="1" parent="1" source="lLFCcneiwbaLHLjSez-d-106">
          <mxGeometry width="50" height="50" relative="1" as="geometry">
            <mxPoint x="464" y="400" as="sourcePoint" />
            <mxPoint x="460" y="270" as="targetPoint" />
          </mxGeometry>
        </mxCell>
        <mxCell id="lLFCcneiwbaLHLjSez-d-110" value="" style="edgeStyle=orthogonalEdgeStyle;rounded=0;orthogonalLoop=1;jettySize=auto;html=1;endArrow=none;endFill=0;" edge="1" parent="1" source="lLFCcneiwbaLHLjSez-d-106">
          <mxGeometry relative="1" as="geometry">
            <mxPoint x="460" y="500" as="targetPoint" />
          </mxGeometry>
        </mxCell>
        <mxCell id="lLFCcneiwbaLHLjSez-d-106" value="PARTICIPA" style="shape=rhombus;perimeter=rhombusPerimeter;whiteSpace=wrap;html=1;align=center;" vertex="1" parent="1">
          <mxGeometry x="400" y="400" width="120" height="60" as="geometry" />
        </mxCell>
        <mxCell id="lLFCcneiwbaLHLjSez-d-107" value="1:1" style="text;html=1;align=center;verticalAlign=middle;resizable=0;points=[];autosize=1;strokeColor=none;fillColor=none;" vertex="1" parent="1">
          <mxGeometry x="460" y="278" width="40" height="30" as="geometry" />
        </mxCell>
        <mxCell id="lLFCcneiwbaLHLjSez-d-108" value="1:N" style="text;html=1;align=center;verticalAlign=middle;resizable=0;points=[];autosize=1;strokeColor=none;fillColor=none;" vertex="1" parent="1">
          <mxGeometry x="360" y="418" width="40" height="30" as="geometry" />
        </mxCell>
        <mxCell id="lLFCcneiwbaLHLjSez-d-111" value="(0:N)" style="text;html=1;align=center;verticalAlign=middle;resizable=0;points=[];autosize=1;strokeColor=none;fillColor=none;" vertex="1" parent="1">
          <mxGeometry x="455" y="475" width="50" height="30" as="geometry" />
        </mxCell>
        <mxCell id="lLFCcneiwbaLHLjSez-d-113" value="ARRIENDO" style="whiteSpace=wrap;html=1;align=center;" vertex="1" parent="1">
          <mxGeometry x="410" y="505" width="100" height="40" as="geometry" />
        </mxCell>
        <mxCell id="lLFCcneiwbaLHLjSez-d-114" value="" style="endArrow=none;html=1;rounded=0;" edge="1" parent="1">
          <mxGeometry width="50" height="50" relative="1" as="geometry">
            <mxPoint x="400" y="570" as="sourcePoint" />
            <mxPoint x="430" y="545" as="targetPoint" />
          </mxGeometry>
        </mxCell>
        <mxCell id="lLFCcneiwbaLHLjSez-d-116" value="CODIGO" style="ellipse;whiteSpace=wrap;html=1;align=center;fillColor=#99CCFF;" vertex="1" parent="1">
          <mxGeometry x="352.5" y="560" width="55" height="30" as="geometry" />
        </mxCell>
        <mxCell id="lLFCcneiwbaLHLjSez-d-117" value="&lt;span style=&quot;border-bottom: 1px dotted&quot;&gt;F_INCIO&lt;/span&gt;" style="ellipse;whiteSpace=wrap;html=1;align=center;" vertex="1" parent="1">
          <mxGeometry x="410" y="560" width="60" height="30" as="geometry" />
        </mxCell>
        <mxCell id="lLFCcneiwbaLHLjSez-d-119" value="F_FIN" style="ellipse;whiteSpace=wrap;html=1;align=center;" vertex="1" parent="1">
          <mxGeometry x="470" y="560" width="50" height="30" as="geometry" />
        </mxCell>
        <mxCell id="lLFCcneiwbaLHLjSez-d-120" value="" style="endArrow=none;html=1;rounded=0;" edge="1" parent="1">
          <mxGeometry width="50" height="50" relative="1" as="geometry">
            <mxPoint x="440" y="560" as="sourcePoint" />
            <mxPoint x="455" y="545" as="targetPoint" />
          </mxGeometry>
        </mxCell>
        <mxCell id="lLFCcneiwbaLHLjSez-d-121" value="" style="endArrow=none;html=1;rounded=0;exitX=0.5;exitY=0;exitDx=0;exitDy=0;" edge="1" parent="1" source="lLFCcneiwbaLHLjSez-d-119">
          <mxGeometry width="50" height="50" relative="1" as="geometry">
            <mxPoint x="435" y="595" as="sourcePoint" />
            <mxPoint x="485" y="545" as="targetPoint" />
          </mxGeometry>
        </mxCell>
        <mxCell id="lLFCcneiwbaLHLjSez-d-122" value="" style="endArrow=none;html=1;rounded=0;" edge="1" parent="1">
          <mxGeometry width="50" height="50" relative="1" as="geometry">
            <mxPoint x="505" y="545" as="sourcePoint" />
            <mxPoint x="540" y="570" as="targetPoint" />
          </mxGeometry>
        </mxCell>
        <mxCell id="lLFCcneiwbaLHLjSez-d-124" value="V_MENSUAL" style="ellipse;whiteSpace=wrap;html=1;align=center;" vertex="1" parent="1">
          <mxGeometry x="520" y="560" width="80" height="35" as="geometry" />
        </mxCell>
        <mxCell id="lLFCcneiwbaLHLjSez-d-127" value="" style="endArrow=none;html=1;rounded=0;" edge="1" parent="1">
          <mxGeometry width="50" height="50" relative="1" as="geometry">
            <mxPoint x="320" y="520" as="sourcePoint" />
            <mxPoint x="410" y="520" as="targetPoint" />
          </mxGeometry>
        </mxCell>
        <mxCell id="lLFCcneiwbaLHLjSez-d-130" value="" style="edgeStyle=orthogonalEdgeStyle;rounded=0;orthogonalLoop=1;jettySize=auto;html=1;endArrow=none;endFill=0;" edge="1" parent="1" source="lLFCcneiwbaLHLjSez-d-128">
          <mxGeometry relative="1" as="geometry">
            <mxPoint x="160" y="520" as="targetPoint" />
          </mxGeometry>
        </mxCell>
        <mxCell id="lLFCcneiwbaLHLjSez-d-128" value="REALIZADO" style="shape=rhombus;perimeter=rhombusPerimeter;whiteSpace=wrap;html=1;align=center;" vertex="1" parent="1">
          <mxGeometry x="220" y="490" width="100" height="60" as="geometry" />
        </mxCell>
        <mxCell id="lLFCcneiwbaLHLjSez-d-131" value="INQUILINO&lt;br&gt;" style="whiteSpace=wrap;html=1;align=center;" vertex="1" parent="1">
          <mxGeometry x="60" y="500" width="100" height="40" as="geometry" />
        </mxCell>
        <mxCell id="lLFCcneiwbaLHLjSez-d-132" value="(1:N)" style="text;html=1;align=center;verticalAlign=middle;resizable=0;points=[];autosize=1;strokeColor=none;fillColor=none;" vertex="1" parent="1">
          <mxGeometry x="370" y="500" width="50" height="30" as="geometry" />
        </mxCell>
        <mxCell id="lLFCcneiwbaLHLjSez-d-133" value="(1:N)" style="text;html=1;align=center;verticalAlign=middle;resizable=0;points=[];autosize=1;strokeColor=none;fillColor=none;" vertex="1" parent="1">
          <mxGeometry x="155" y="498" width="50" height="30" as="geometry" />
        </mxCell>
        <mxCell id="lLFCcneiwbaLHLjSez-d-134" value="N:M" style="text;html=1;align=center;verticalAlign=middle;resizable=0;points=[];autosize=1;strokeColor=none;fillColor=none;" vertex="1" parent="1">
          <mxGeometry x="245" y="468" width="50" height="30" as="geometry" />
        </mxCell>
        <mxCell id="lLFCcneiwbaLHLjSez-d-135" value="" style="endArrow=none;html=1;rounded=0;" edge="1" parent="1">
          <mxGeometry width="50" height="50" relative="1" as="geometry">
            <mxPoint x="65" y="500" as="sourcePoint" />
            <mxPoint x="40" y="470" as="targetPoint" />
          </mxGeometry>
        </mxCell>
        <mxCell id="lLFCcneiwbaLHLjSez-d-137" value="identifica" style="ellipse;whiteSpace=wrap;html=1;align=center;fillColor=#99CCFF;" vertex="1" parent="1">
          <mxGeometry y="430" width="60" height="40" as="geometry" />
        </mxCell>
        <mxCell id="lLFCcneiwbaLHLjSez-d-138" value="" style="endArrow=none;html=1;rounded=0;" edge="1" parent="1">
          <mxGeometry width="50" height="50" relative="1" as="geometry">
            <mxPoint x="80" y="500" as="sourcePoint" />
            <mxPoint x="110" y="470" as="targetPoint" />
          </mxGeometry>
        </mxCell>
        <mxCell id="lLFCcneiwbaLHLjSez-d-139" value="nombre&lt;br&gt;" style="ellipse;whiteSpace=wrap;html=1;align=center;" vertex="1" parent="1">
          <mxGeometry x="80" y="430" width="60" height="40" as="geometry" />
        </mxCell>
        <mxCell id="lLFCcneiwbaLHLjSez-d-140" value="" style="endArrow=none;html=1;rounded=0;" edge="1" parent="1">
          <mxGeometry width="50" height="50" relative="1" as="geometry">
            <mxPoint x="100" y="430" as="sourcePoint" />
            <mxPoint x="80" y="400" as="targetPoint" />
          </mxGeometry>
        </mxCell>
        <mxCell id="lLFCcneiwbaLHLjSez-d-141" value="nombres" style="ellipse;whiteSpace=wrap;html=1;align=center;" vertex="1" parent="1">
          <mxGeometry x="50" y="370" width="50" height="30" as="geometry" />
        </mxCell>
        <mxCell id="lLFCcneiwbaLHLjSez-d-142" value="" style="endArrow=none;html=1;rounded=0;" edge="1" parent="1">
          <mxGeometry width="50" height="50" relative="1" as="geometry">
            <mxPoint x="110" y="430" as="sourcePoint" />
            <mxPoint x="140" y="400" as="targetPoint" />
          </mxGeometry>
        </mxCell>
        <mxCell id="lLFCcneiwbaLHLjSez-d-143" value="apellidos&lt;br&gt;" style="ellipse;whiteSpace=wrap;html=1;align=center;" vertex="1" parent="1">
          <mxGeometry x="120" y="370" width="50" height="30" as="geometry" />
        </mxCell>
        <mxCell id="lLFCcneiwbaLHLjSez-d-144" value="" style="endArrow=none;html=1;rounded=0;" edge="1" parent="1">
          <mxGeometry width="50" height="50" relative="1" as="geometry">
            <mxPoint x="60" y="570" as="sourcePoint" />
            <mxPoint x="80" y="540" as="targetPoint" />
          </mxGeometry>
        </mxCell>
        <mxCell id="lLFCcneiwbaLHLjSez-d-148" value="telefonos&lt;br&gt;" style="ellipse;shape=doubleEllipse;margin=3;whiteSpace=wrap;html=1;align=center;" vertex="1" parent="1">
          <mxGeometry x="20" y="569.5" width="70" height="30" as="geometry" />
        </mxCell>
      </root>
    </mxGraphModel>
  </diagram>
</mxfile>
